<svg xmlns="http://www.w3.org/2000/svg" xmlns:xlink="http://www.w3.org/1999/xlink" version="1.1" id="Your_Icon" x="0px" y="0px" width="100px" height="100px" viewBox="0 0 100 100" enable-background="new 0 0 100 100" xml:space="preserve"><g><g><path d="M91.886,20.025H69.934V4.614C69.934,2.076,67.869,0,65.32,0H34.613c-2.549,0-4.614,2.076-4.614,4.614v15.411H8.047    c-2.549,0-4.614,2.065-4.614,4.614c0,2.549,2.065,4.614,4.614,4.614h7.117v66.132c0,2.549,2.065,4.614,4.614,4.614h60.376    c2.549,0,4.614-2.065,4.614-4.614V29.254h7.117c2.549,0,4.614-2.065,4.614-4.614C96.5,22.09,94.435,20.025,91.886,20.025z     M39.227,9.228h21.479v10.797H39.227V9.228z M75.54,90.772H24.392V29.254H75.54V90.772z"/></g><g><path d="M60.133,85.39c-2.548,0-4.614-2.066-4.614-4.614V39.248c0-2.548,2.066-4.614,4.614-4.614s4.614,2.066,4.614,4.614v41.527    C64.747,83.324,62.681,85.39,60.133,85.39z"/></g><g><path d="M39.799,85.39c-2.548,0-4.614-2.066-4.614-4.614V39.248c0-2.548,2.066-4.614,4.614-4.614s4.614,2.066,4.614,4.614v41.527    C44.414,83.324,42.348,85.39,39.799,85.39z"/></g></g></svg>